<svg width="1363" height="167" viewBox="0 0 1363 167" fill="none" xmlns="http://www.w3.org/2000/svg">
<rect width="1363" height="167" rx="15" fill="#F0F0F0"/>
<path d="M0 15C0 6.71573 6.71573 0 15 0H37V167H15C6.71573 167 0 160.284 0 152V15Z" fill="#424241"/>
<path d="M100.906 54.9219L93.3945 52.2383V49.0859L103.602 53.375V55.6367L100.906 54.9219ZM93.3945 57.1719L100.918 54.4297L103.602 53.7852V56.0352L93.3945 60.3242V57.1719ZM115.637 44.9375V62H112.133V44.9375H115.637ZM122.023 52.0273V62H118.648V49.3203H121.812L122.023 52.0273ZM121.531 55.2148H120.617C120.617 54.2773 120.738 53.4336 120.98 52.6836C121.223 51.9258 121.562 51.2812 122 50.75C122.438 50.2109 122.957 49.8008 123.559 49.5195C124.168 49.2305 124.848 49.0859 125.598 49.0859C126.191 49.0859 126.734 49.1719 127.227 49.3438C127.719 49.5156 128.141 49.7891 128.492 50.1641C128.852 50.5391 129.125 51.0352 129.312 51.6523C129.508 52.2695 129.605 53.0234 129.605 53.9141V62H126.207V53.9023C126.207 53.3398 126.129 52.9023 125.973 52.5898C125.816 52.2773 125.586 52.0586 125.281 51.9336C124.984 51.8008 124.617 51.7344 124.18 51.7344C123.727 51.7344 123.332 51.8242 122.996 52.0039C122.668 52.1836 122.395 52.4336 122.176 52.7539C121.965 53.0664 121.805 53.4336 121.695 53.8555C121.586 54.2773 121.531 54.7305 121.531 55.2148ZM143.762 51.8867V54.6289H134.855V51.8867H143.762ZM135.898 44.9375V62H132.383V44.9375H135.898ZM146.27 44.9375V62H142.766V44.9375H146.27ZM148.578 55.7891V55.543C148.578 54.6133 148.711 53.7578 148.977 52.9766C149.242 52.1875 149.629 51.5039 150.137 50.9258C150.645 50.3477 151.27 49.8984 152.012 49.5781C152.754 49.25 153.605 49.0859 154.566 49.0859C155.527 49.0859 156.383 49.25 157.133 49.5781C157.883 49.8984 158.512 50.3477 159.02 50.9258C159.535 51.5039 159.926 52.1875 160.191 52.9766C160.457 53.7578 160.59 54.6133 160.59 55.543V55.7891C160.59 56.7109 160.457 57.5664 160.191 58.3555C159.926 59.1367 159.535 59.8203 159.02 60.4062C158.512 60.9844 157.887 61.4336 157.145 61.7539C156.402 62.0742 155.551 62.2344 154.59 62.2344C153.629 62.2344 152.773 62.0742 152.023 61.7539C151.281 61.4336 150.652 60.9844 150.137 60.4062C149.629 59.8203 149.242 59.1367 148.977 58.3555C148.711 57.5664 148.578 56.7109 148.578 55.7891ZM151.953 55.543V55.7891C151.953 56.3203 152 56.8164 152.094 57.2773C152.188 57.7383 152.336 58.1445 152.539 58.4961C152.75 58.8398 153.023 59.1094 153.359 59.3047C153.695 59.5 154.105 59.5977 154.59 59.5977C155.059 59.5977 155.461 59.5 155.797 59.3047C156.133 59.1094 156.402 58.8398 156.605 58.4961C156.809 58.1445 156.957 57.7383 157.051 57.2773C157.152 56.8164 157.203 56.3203 157.203 55.7891V55.543C157.203 55.0273 157.152 54.543 157.051 54.0898C156.957 53.6289 156.805 53.2227 156.594 52.8711C156.391 52.5117 156.121 52.2305 155.785 52.0273C155.449 51.8242 155.043 51.7227 154.566 51.7227C154.09 51.7227 153.684 51.8242 153.348 52.0273C153.02 52.2305 152.75 52.5117 152.539 52.8711C152.336 53.2227 152.188 53.6289 152.094 54.0898C152 54.543 151.953 55.0273 151.953 55.543ZM166.039 51.9453V62H162.652V49.3203H165.828L166.039 51.9453ZM165.57 55.2148H164.633C164.633 54.332 164.738 53.5195 164.949 52.7773C165.168 52.0273 165.484 51.3789 165.898 50.832C166.32 50.2773 166.84 49.8477 167.457 49.543C168.074 49.2383 168.789 49.0859 169.602 49.0859C170.164 49.0859 170.68 49.1719 171.148 49.3438C171.617 49.5078 172.02 49.7695 172.355 50.1289C172.699 50.4805 172.965 50.9414 173.152 51.5117C173.34 52.0742 173.434 52.75 173.434 53.5391V62H170.059V53.9141C170.059 53.3359 169.98 52.8906 169.824 52.5781C169.668 52.2656 169.445 52.0469 169.156 51.9219C168.875 51.7969 168.535 51.7344 168.137 51.7344C167.699 51.7344 167.316 51.8242 166.988 52.0039C166.668 52.1836 166.402 52.4336 166.191 52.7539C165.98 53.0664 165.824 53.4336 165.723 53.8555C165.621 54.2773 165.57 54.7305 165.57 55.2148ZM173.117 54.8281L171.91 54.9805C171.91 54.1523 172.012 53.3828 172.215 52.6719C172.426 51.9609 172.734 51.3359 173.141 50.7969C173.555 50.2578 174.066 49.8398 174.676 49.543C175.285 49.2383 175.988 49.0859 176.785 49.0859C177.395 49.0859 177.949 49.1758 178.449 49.3555C178.949 49.5273 179.375 49.8047 179.727 50.1875C180.086 50.5625 180.359 51.0547 180.547 51.6641C180.742 52.2734 180.84 53.0195 180.84 53.9023V62H177.453V53.9023C177.453 53.3164 177.375 52.8711 177.219 52.5664C177.07 52.2539 176.852 52.0391 176.562 51.9219C176.281 51.7969 175.945 51.7344 175.555 51.7344C175.148 51.7344 174.793 51.8164 174.488 51.9805C174.184 52.1367 173.93 52.3555 173.727 52.6367C173.523 52.918 173.371 53.2461 173.27 53.6211C173.168 53.9883 173.117 54.3906 173.117 54.8281ZM189.289 62.2344C188.305 62.2344 187.422 62.0781 186.641 61.7656C185.859 61.4453 185.195 61.0039 184.648 60.4414C184.109 59.8789 183.695 59.2266 183.406 58.4844C183.117 57.7344 182.973 56.9375 182.973 56.0938V55.625C182.973 54.6641 183.109 53.7852 183.383 52.9883C183.656 52.1914 184.047 51.5 184.555 50.9141C185.07 50.3281 185.695 49.8789 186.43 49.5664C187.164 49.2461 187.992 49.0859 188.914 49.0859C189.812 49.0859 190.609 49.2344 191.305 49.5312C192 49.8281 192.582 50.25 193.051 50.7969C193.527 51.3438 193.887 52 194.129 52.7656C194.371 53.5234 194.492 54.3672 194.492 55.2969V56.7031H184.414V54.4531H191.176V54.1953C191.176 53.7266 191.09 53.3086 190.918 52.9414C190.754 52.5664 190.504 52.2695 190.168 52.0508C189.832 51.832 189.402 51.7227 188.879 51.7227C188.434 51.7227 188.051 51.8203 187.73 52.0156C187.41 52.2109 187.148 52.4844 186.945 52.8359C186.75 53.1875 186.602 53.6016 186.5 54.0781C186.406 54.5469 186.359 55.0625 186.359 55.625V56.0938C186.359 56.6016 186.43 57.0703 186.57 57.5C186.719 57.9297 186.926 58.3008 187.191 58.6133C187.465 58.9258 187.793 59.168 188.176 59.3398C188.566 59.5117 189.008 59.5977 189.5 59.5977C190.109 59.5977 190.676 59.4805 191.199 59.2461C191.73 59.0039 192.188 58.6406 192.57 58.1562L194.211 59.9375C193.945 60.3203 193.582 60.6875 193.121 61.0391C192.668 61.3906 192.121 61.6797 191.48 61.9062C190.84 62.125 190.109 62.2344 189.289 62.2344Z" fill="#888888"/>
<path d="M109.93 86.0078V118H102.217V86.0078H109.93ZM119.554 86.0078V91.9624H92.813V86.0078H119.554ZM132.012 118.439C130.079 118.439 128.35 118.139 126.827 117.539C125.303 116.923 124.014 116.081 122.959 115.012C121.919 113.942 121.121 112.712 120.564 111.32C120.022 109.929 119.751 108.457 119.751 106.904V106.069C119.751 104.326 119.993 102.714 120.477 101.235C120.96 99.7407 121.678 98.437 122.63 97.3237C123.582 96.2104 124.776 95.3462 126.211 94.731C127.647 94.1011 129.317 93.7861 131.221 93.7861C132.906 93.7861 134.415 94.0571 135.748 94.5991C137.081 95.1411 138.208 95.9175 139.131 96.9282C140.069 97.939 140.779 99.1621 141.263 100.598C141.761 102.033 142.01 103.645 142.01 105.432V108.442H122.586V103.806H134.781V103.234C134.795 102.443 134.656 101.77 134.363 101.213C134.085 100.656 133.675 100.231 133.133 99.9385C132.591 99.6455 131.932 99.499 131.155 99.499C130.35 99.499 129.683 99.6748 129.156 100.026C128.643 100.378 128.24 100.861 127.947 101.477C127.669 102.077 127.471 102.773 127.354 103.564C127.237 104.355 127.178 105.19 127.178 106.069V106.904C127.178 107.783 127.295 108.581 127.53 109.299C127.779 110.017 128.13 110.632 128.584 111.145C129.053 111.643 129.61 112.031 130.254 112.309C130.914 112.587 131.661 112.727 132.496 112.727C133.506 112.727 134.502 112.536 135.484 112.155C136.465 111.774 137.308 111.145 138.011 110.266L141.373 114.265C140.889 114.953 140.201 115.62 139.307 116.264C138.428 116.909 137.374 117.436 136.143 117.846C134.913 118.242 133.536 118.439 132.012 118.439ZM155.062 112.727C155.75 112.727 156.336 112.602 156.819 112.353C157.317 112.089 157.691 111.723 157.94 111.254C158.204 110.771 158.328 110.192 158.313 109.519H165.279C165.293 111.306 164.854 112.873 163.96 114.221C163.082 115.554 161.88 116.594 160.357 117.341C158.848 118.073 157.142 118.439 155.237 118.439C153.377 118.439 151.751 118.139 150.359 117.539C148.968 116.923 147.803 116.074 146.866 114.99C145.943 113.891 145.247 112.609 144.778 111.145C144.324 109.68 144.097 108.09 144.097 106.376V105.871C144.097 104.157 144.324 102.568 144.778 101.103C145.247 99.6235 145.943 98.3418 146.866 97.2578C147.803 96.1592 148.96 95.3096 150.337 94.709C151.729 94.0938 153.348 93.7861 155.193 93.7861C157.171 93.7861 158.914 94.1597 160.423 94.9067C161.946 95.6538 163.14 96.7378 164.004 98.1587C164.869 99.5796 165.293 101.301 165.279 103.322H158.313C158.328 102.604 158.218 101.96 157.984 101.389C157.75 100.817 157.383 100.363 156.885 100.026C156.402 99.6748 155.779 99.499 155.018 99.499C154.256 99.499 153.641 99.6675 153.172 100.004C152.703 100.341 152.344 100.81 152.095 101.411C151.861 101.997 151.7 102.67 151.612 103.432C151.539 104.194 151.502 105.007 151.502 105.871V106.376C151.502 107.255 151.539 108.083 151.612 108.859C151.7 109.621 151.868 110.295 152.117 110.881C152.366 111.452 152.725 111.906 153.194 112.243C153.663 112.565 154.285 112.727 155.062 112.727ZM175.694 84.25V118H168.289V84.25H175.694ZM174.815 105.3L173.079 105.344C173.079 103.674 173.284 102.136 173.694 100.729C174.104 99.3232 174.69 98.1001 175.452 97.0601C176.214 96.02 177.129 95.2144 178.199 94.6431C179.268 94.0718 180.455 93.7861 181.758 93.7861C182.93 93.7861 184 93.9546 184.966 94.2915C185.948 94.6284 186.79 95.1704 187.493 95.9175C188.211 96.6646 188.76 97.6387 189.141 98.8398C189.537 100.041 189.734 101.506 189.734 103.234V118H182.286V103.19C182.286 102.224 182.146 101.477 181.868 100.949C181.604 100.407 181.224 100.034 180.726 99.8286C180.228 99.6089 179.62 99.499 178.902 99.499C178.038 99.499 177.334 99.6455 176.792 99.9385C176.25 100.231 175.833 100.642 175.54 101.169C175.262 101.682 175.071 102.29 174.969 102.993C174.866 103.696 174.815 104.465 174.815 105.3ZM221.88 109.497C221.88 108.999 221.807 108.552 221.661 108.156C221.514 107.746 221.243 107.365 220.848 107.014C220.452 106.662 219.881 106.311 219.134 105.959C218.401 105.593 217.435 105.212 216.233 104.816C214.827 104.348 213.472 103.82 212.168 103.234C210.865 102.634 209.7 101.938 208.675 101.147C207.649 100.341 206.836 99.4038 206.236 98.3345C205.635 97.2505 205.335 95.9907 205.335 94.5552C205.335 93.1782 205.643 91.9404 206.258 90.8418C206.873 89.7285 207.73 88.7837 208.829 88.0073C209.942 87.2163 211.246 86.6157 212.74 86.2056C214.234 85.7808 215.867 85.5684 217.64 85.5684C219.983 85.5684 222.049 85.9785 223.836 86.7988C225.638 87.6045 227.044 88.7544 228.055 90.2485C229.08 91.728 229.593 93.4785 229.593 95.5H221.924C221.924 94.6943 221.756 93.9839 221.419 93.3687C221.097 92.7534 220.606 92.27 219.947 91.9185C219.288 91.5669 218.46 91.3911 217.464 91.3911C216.497 91.3911 215.684 91.5376 215.025 91.8306C214.366 92.1235 213.868 92.519 213.531 93.0171C213.194 93.5005 213.025 94.0352 213.025 94.6211C213.025 95.1045 213.157 95.5439 213.421 95.9395C213.699 96.3203 214.087 96.6792 214.585 97.0161C215.098 97.353 215.713 97.6753 216.431 97.9829C217.164 98.2905 217.984 98.5908 218.892 98.8838C220.591 99.4258 222.1 100.034 223.418 100.708C224.751 101.367 225.872 102.121 226.78 102.971C227.703 103.806 228.399 104.758 228.868 105.827C229.351 106.896 229.593 108.105 229.593 109.453C229.593 110.888 229.314 112.163 228.758 113.276C228.201 114.389 227.403 115.334 226.363 116.11C225.323 116.872 224.078 117.451 222.627 117.846C221.177 118.242 219.559 118.439 217.771 118.439C216.131 118.439 214.512 118.234 212.916 117.824C211.333 117.399 209.898 116.755 208.609 115.891C207.32 115.012 206.287 113.891 205.511 112.529C204.749 111.152 204.368 109.519 204.368 107.629H212.103C212.103 108.566 212.227 109.357 212.476 110.002C212.725 110.646 213.091 111.167 213.575 111.562C214.058 111.943 214.651 112.221 215.354 112.397C216.058 112.558 216.863 112.639 217.771 112.639C218.753 112.639 219.544 112.5 220.145 112.221C220.745 111.928 221.185 111.547 221.463 111.079C221.741 110.595 221.88 110.068 221.88 109.497ZM245.743 94.2256V99.3672H231.417V94.2256H245.743ZM234.427 88.3149H241.832V110.244C241.832 110.874 241.905 111.364 242.051 111.716C242.198 112.053 242.447 112.294 242.798 112.441C243.165 112.573 243.648 112.639 244.249 112.639C244.673 112.639 245.025 112.631 245.303 112.617C245.582 112.587 245.845 112.551 246.094 112.507V117.802C245.464 118.007 244.805 118.161 244.117 118.264C243.428 118.381 242.696 118.439 241.919 118.439C240.337 118.439 238.982 118.19 237.854 117.692C236.741 117.194 235.892 116.411 235.306 115.341C234.72 114.272 234.427 112.88 234.427 111.167V88.3149ZM261.036 112.023V102.224C261.036 101.55 260.94 100.971 260.75 100.488C260.56 100.004 260.259 99.6309 259.849 99.3672C259.439 99.0889 258.89 98.9497 258.201 98.9497C257.645 98.9497 257.168 99.0449 256.773 99.2354C256.377 99.4258 256.077 99.7114 255.872 100.092C255.667 100.473 255.564 100.957 255.564 101.542H248.16C248.16 100.444 248.401 99.4258 248.885 98.4883C249.383 97.5361 250.086 96.7085 250.994 96.0054C251.917 95.3022 253.016 94.7603 254.29 94.3794C255.579 93.9839 257.015 93.7861 258.597 93.7861C260.486 93.7861 262.171 94.1011 263.65 94.731C265.145 95.3608 266.324 96.3057 267.188 97.5654C268.052 98.8105 268.484 100.378 268.484 102.268V112.001C268.484 113.554 268.572 114.733 268.748 115.539C268.924 116.33 269.173 117.026 269.495 117.626V118H262.068C261.717 117.268 261.453 116.374 261.277 115.319C261.116 114.25 261.036 113.151 261.036 112.023ZM261.937 103.476L261.98 107.431H258.707C258.018 107.431 257.432 107.526 256.949 107.717C256.48 107.907 256.099 108.171 255.806 108.508C255.528 108.83 255.323 109.196 255.191 109.606C255.074 110.017 255.015 110.449 255.015 110.903C255.015 111.342 255.118 111.738 255.323 112.089C255.542 112.426 255.835 112.69 256.202 112.88C256.568 113.071 256.978 113.166 257.432 113.166C258.252 113.166 258.948 113.012 259.52 112.705C260.105 112.382 260.552 111.994 260.86 111.54C261.167 111.086 261.321 110.661 261.321 110.266L262.947 113.298C262.654 113.884 262.317 114.477 261.937 115.078C261.57 115.678 261.109 116.235 260.552 116.748C260.01 117.246 259.344 117.656 258.553 117.978C257.762 118.286 256.802 118.439 255.674 118.439C254.209 118.439 252.862 118.139 251.631 117.539C250.416 116.938 249.441 116.103 248.709 115.034C247.977 113.95 247.61 112.705 247.61 111.298C247.61 110.068 247.83 108.969 248.27 108.002C248.724 107.036 249.405 106.215 250.313 105.542C251.221 104.868 252.378 104.355 253.785 104.003C255.191 103.652 256.846 103.476 258.75 103.476H261.937ZM282.635 112.727C283.323 112.727 283.909 112.602 284.393 112.353C284.891 112.089 285.264 111.723 285.513 111.254C285.777 110.771 285.901 110.192 285.887 109.519H292.852C292.867 111.306 292.427 112.873 291.534 114.221C290.655 115.554 289.454 116.594 287.93 117.341C286.421 118.073 284.715 118.439 282.811 118.439C280.95 118.439 279.324 118.139 277.933 117.539C276.541 116.923 275.376 116.074 274.439 114.99C273.516 113.891 272.82 112.609 272.352 111.145C271.897 109.68 271.67 108.09 271.67 106.376V105.871C271.67 104.157 271.897 102.568 272.352 101.103C272.82 99.6235 273.516 98.3418 274.439 97.2578C275.376 96.1592 276.534 95.3096 277.911 94.709C279.302 94.0938 280.921 93.7861 282.767 93.7861C284.744 93.7861 286.487 94.1597 287.996 94.9067C289.52 95.6538 290.713 96.7378 291.578 98.1587C292.442 99.5796 292.867 101.301 292.852 103.322H285.887C285.901 102.604 285.792 101.96 285.557 101.389C285.323 100.817 284.957 100.363 284.458 100.026C283.975 99.6748 283.353 99.499 282.591 99.499C281.829 99.499 281.214 99.6675 280.745 100.004C280.276 100.341 279.917 100.81 279.668 101.411C279.434 101.997 279.273 102.67 279.185 103.432C279.112 104.194 279.075 105.007 279.075 105.871V106.376C279.075 107.255 279.112 108.083 279.185 108.859C279.273 109.621 279.441 110.295 279.69 110.881C279.939 111.452 280.298 111.906 280.767 112.243C281.236 112.565 281.858 112.727 282.635 112.727ZM303.487 84.228V118H296.082V84.228H303.487ZM318.692 94.2256L308.365 106.333L302.959 111.738L299.729 107.036L304.234 101.169L309.815 94.2256H318.692ZM310.76 118L304.41 107.167L309.881 103.278L319.241 118H310.76Z" fill="#424241"/>
<path d="M1363 15C1363 6.71573 1356.28 0 1348 0H1134V167H1348C1356.28 167 1363 160.284 1363 152V15Z" fill="#B16042"/>
<path fill-rule="evenodd" clip-rule="evenodd" d="M1218.5 55C1218.37 55 1218.24 55.0527 1218.15 55.1464C1218.05 55.2402 1218 55.3674 1218 55.5V111.5C1218 111.633 1218.05 111.76 1218.15 111.854C1218.24 111.947 1218.37 112 1218.5 112H1278C1278.13 112 1278.26 111.947 1278.35 111.854C1278.45 111.76 1278.5 111.633 1278.5 111.5V66C1278.5 65.8674 1278.45 65.7402 1278.35 65.6464C1278.26 65.5527 1278.13 65.5 1278 65.5H1248.25C1247.36 65.5 1246.52 65.1045 1245.95 64.4206L1238.09 55H1218.5ZM1213.9 50.9038C1215.12 49.6848 1216.78 49 1218.5 49H1239.5C1240.39 49 1241.23 49.3955 1241.8 50.0794L1249.66 59.5H1278C1279.72 59.5 1281.38 60.1848 1282.6 61.4038C1283.82 62.6228 1284.5 64.2761 1284.5 66V111.5C1284.5 113.224 1283.82 114.877 1282.6 116.096C1281.38 117.315 1279.72 118 1278 118H1218.5C1216.78 118 1215.12 117.315 1213.9 116.096C1212.68 114.877 1212 113.224 1212 111.5V55.5C1212 53.7761 1212.68 52.1228 1213.9 50.9038Z" fill="white"/>
<path fill-rule="evenodd" clip-rule="evenodd" d="M1243.72 77.5251C1245.09 78.892 1245.09 81.108 1243.72 82.4749L1237.45 88.75L1243.72 95.0251C1245.09 96.392 1245.09 98.608 1243.72 99.9749C1242.36 101.342 1240.14 101.342 1238.78 99.9749L1230.03 91.2249C1228.66 89.858 1228.66 87.642 1230.03 86.2751L1238.78 77.5251C1240.14 76.1583 1242.36 76.1583 1243.72 77.5251Z" fill="white"/>
<path fill-rule="evenodd" clip-rule="evenodd" d="M1252.03 99.9749C1250.66 98.608 1250.66 96.392 1252.03 95.0251L1258.3 88.75L1252.03 82.4749C1250.66 81.108 1250.66 78.892 1252.03 77.5251C1253.39 76.1583 1255.61 76.1583 1256.97 77.5251L1265.72 86.2751C1267.09 87.642 1267.09 89.858 1265.72 91.2249L1256.97 99.9749C1255.61 101.342 1253.39 101.342 1252.03 99.9749Z" fill="white"/>
</svg>
