<svg width="1363" height="167" viewBox="0 0 1363 167" fill="none" xmlns="http://www.w3.org/2000/svg">
<rect width="1363" height="167" rx="15" fill="#F0F0F0"/>
<path d="M0 15C0 6.71573 6.71573 0 15 0H37V167H15C6.71573 167 0 160.284 0 152V15Z" fill="#424241"/>
<path d="M100.906 54.9219L93.3945 52.2383V49.0859L103.602 53.375V55.6367L100.906 54.9219ZM93.3945 57.1719L100.918 54.4297L103.602 53.7852V56.0352L93.3945 60.3242V57.1719ZM115.637 44.9375V62H112.133V44.9375H115.637ZM122.023 52.0273V62H118.648V49.3203H121.812L122.023 52.0273ZM121.531 55.2148H120.617C120.617 54.2773 120.738 53.4336 120.98 52.6836C121.223 51.9258 121.562 51.2812 122 50.75C122.438 50.2109 122.957 49.8008 123.559 49.5195C124.168 49.2305 124.848 49.0859 125.598 49.0859C126.191 49.0859 126.734 49.1719 127.227 49.3438C127.719 49.5156 128.141 49.7891 128.492 50.1641C128.852 50.5391 129.125 51.0352 129.312 51.6523C129.508 52.2695 129.605 53.0234 129.605 53.9141V62H126.207V53.9023C126.207 53.3398 126.129 52.9023 125.973 52.5898C125.816 52.2773 125.586 52.0586 125.281 51.9336C124.984 51.8008 124.617 51.7344 124.18 51.7344C123.727 51.7344 123.332 51.8242 122.996 52.0039C122.668 52.1836 122.395 52.4336 122.176 52.7539C121.965 53.0664 121.805 53.4336 121.695 53.8555C121.586 54.2773 121.531 54.7305 121.531 55.2148ZM143.762 51.8867V54.6289H134.855V51.8867H143.762ZM135.898 44.9375V62H132.383V44.9375H135.898ZM146.27 44.9375V62H142.766V44.9375H146.27ZM148.578 55.7891V55.543C148.578 54.6133 148.711 53.7578 148.977 52.9766C149.242 52.1875 149.629 51.5039 150.137 50.9258C150.645 50.3477 151.27 49.8984 152.012 49.5781C152.754 49.25 153.605 49.0859 154.566 49.0859C155.527 49.0859 156.383 49.25 157.133 49.5781C157.883 49.8984 158.512 50.3477 159.02 50.9258C159.535 51.5039 159.926 52.1875 160.191 52.9766C160.457 53.7578 160.59 54.6133 160.59 55.543V55.7891C160.59 56.7109 160.457 57.5664 160.191 58.3555C159.926 59.1367 159.535 59.8203 159.02 60.4062C158.512 60.9844 157.887 61.4336 157.145 61.7539C156.402 62.0742 155.551 62.2344 154.59 62.2344C153.629 62.2344 152.773 62.0742 152.023 61.7539C151.281 61.4336 150.652 60.9844 150.137 60.4062C149.629 59.8203 149.242 59.1367 148.977 58.3555C148.711 57.5664 148.578 56.7109 148.578 55.7891ZM151.953 55.543V55.7891C151.953 56.3203 152 56.8164 152.094 57.2773C152.188 57.7383 152.336 58.1445 152.539 58.4961C152.75 58.8398 153.023 59.1094 153.359 59.3047C153.695 59.5 154.105 59.5977 154.59 59.5977C155.059 59.5977 155.461 59.5 155.797 59.3047C156.133 59.1094 156.402 58.8398 156.605 58.4961C156.809 58.1445 156.957 57.7383 157.051 57.2773C157.152 56.8164 157.203 56.3203 157.203 55.7891V55.543C157.203 55.0273 157.152 54.543 157.051 54.0898C156.957 53.6289 156.805 53.2227 156.594 52.8711C156.391 52.5117 156.121 52.2305 155.785 52.0273C155.449 51.8242 155.043 51.7227 154.566 51.7227C154.09 51.7227 153.684 51.8242 153.348 52.0273C153.02 52.2305 152.75 52.5117 152.539 52.8711C152.336 53.2227 152.188 53.6289 152.094 54.0898C152 54.543 151.953 55.0273 151.953 55.543ZM166.039 51.9453V62H162.652V49.3203H165.828L166.039 51.9453ZM165.57 55.2148H164.633C164.633 54.332 164.738 53.5195 164.949 52.7773C165.168 52.0273 165.484 51.3789 165.898 50.832C166.32 50.2773 166.84 49.8477 167.457 49.543C168.074 49.2383 168.789 49.0859 169.602 49.0859C170.164 49.0859 170.68 49.1719 171.148 49.3438C171.617 49.5078 172.02 49.7695 172.355 50.1289C172.699 50.4805 172.965 50.9414 173.152 51.5117C173.34 52.0742 173.434 52.75 173.434 53.5391V62H170.059V53.9141C170.059 53.3359 169.98 52.8906 169.824 52.5781C169.668 52.2656 169.445 52.0469 169.156 51.9219C168.875 51.7969 168.535 51.7344 168.137 51.7344C167.699 51.7344 167.316 51.8242 166.988 52.0039C166.668 52.1836 166.402 52.4336 166.191 52.7539C165.98 53.0664 165.824 53.4336 165.723 53.8555C165.621 54.2773 165.57 54.7305 165.57 55.2148ZM173.117 54.8281L171.91 54.9805C171.91 54.1523 172.012 53.3828 172.215 52.6719C172.426 51.9609 172.734 51.3359 173.141 50.7969C173.555 50.2578 174.066 49.8398 174.676 49.543C175.285 49.2383 175.988 49.0859 176.785 49.0859C177.395 49.0859 177.949 49.1758 178.449 49.3555C178.949 49.5273 179.375 49.8047 179.727 50.1875C180.086 50.5625 180.359 51.0547 180.547 51.6641C180.742 52.2734 180.84 53.0195 180.84 53.9023V62H177.453V53.9023C177.453 53.3164 177.375 52.8711 177.219 52.5664C177.07 52.2539 176.852 52.0391 176.562 51.9219C176.281 51.7969 175.945 51.7344 175.555 51.7344C175.148 51.7344 174.793 51.8164 174.488 51.9805C174.184 52.1367 173.93 52.3555 173.727 52.6367C173.523 52.918 173.371 53.2461 173.27 53.6211C173.168 53.9883 173.117 54.3906 173.117 54.8281ZM189.289 62.2344C188.305 62.2344 187.422 62.0781 186.641 61.7656C185.859 61.4453 185.195 61.0039 184.648 60.4414C184.109 59.8789 183.695 59.2266 183.406 58.4844C183.117 57.7344 182.973 56.9375 182.973 56.0938V55.625C182.973 54.6641 183.109 53.7852 183.383 52.9883C183.656 52.1914 184.047 51.5 184.555 50.9141C185.07 50.3281 185.695 49.8789 186.43 49.5664C187.164 49.2461 187.992 49.0859 188.914 49.0859C189.812 49.0859 190.609 49.2344 191.305 49.5312C192 49.8281 192.582 50.25 193.051 50.7969C193.527 51.3438 193.887 52 194.129 52.7656C194.371 53.5234 194.492 54.3672 194.492 55.2969V56.7031H184.414V54.4531H191.176V54.1953C191.176 53.7266 191.09 53.3086 190.918 52.9414C190.754 52.5664 190.504 52.2695 190.168 52.0508C189.832 51.832 189.402 51.7227 188.879 51.7227C188.434 51.7227 188.051 51.8203 187.73 52.0156C187.41 52.2109 187.148 52.4844 186.945 52.8359C186.75 53.1875 186.602 53.6016 186.5 54.0781C186.406 54.5469 186.359 55.0625 186.359 55.625V56.0938C186.359 56.6016 186.43 57.0703 186.57 57.5C186.719 57.9297 186.926 58.3008 187.191 58.6133C187.465 58.9258 187.793 59.168 188.176 59.3398C188.566 59.5117 189.008 59.5977 189.5 59.5977C190.109 59.5977 190.676 59.4805 191.199 59.2461C191.73 59.0039 192.188 58.6406 192.57 58.1562L194.211 59.9375C193.945 60.3203 193.582 60.6875 193.121 61.0391C192.668 61.3906 192.121 61.6797 191.48 61.9062C190.84 62.125 190.109 62.2344 189.289 62.2344Z" fill="#888888"/>
<path d="M115.994 98.708V104.641H99.5806V98.708H115.994ZM102.151 86.0078V118H94.439V86.0078H102.151ZM121.18 86.0078V118H113.489V86.0078H121.18ZM124.805 106.354V105.893C124.805 104.15 125.054 102.546 125.552 101.081C126.05 99.6016 126.783 98.3198 127.75 97.2358C128.716 96.1519 129.91 95.3096 131.331 94.709C132.752 94.0938 134.393 93.7861 136.253 93.7861C138.128 93.7861 139.776 94.0938 141.197 94.709C142.632 95.3096 143.833 96.1519 144.8 97.2358C145.767 98.3198 146.5 99.6016 146.998 101.081C147.496 102.546 147.745 104.15 147.745 105.893V106.354C147.745 108.083 147.496 109.687 146.998 111.167C146.5 112.631 145.767 113.913 144.8 115.012C143.833 116.096 142.64 116.938 141.219 117.539C139.798 118.139 138.157 118.439 136.297 118.439C134.437 118.439 132.789 118.139 131.353 117.539C129.917 116.938 128.716 116.096 127.75 115.012C126.783 113.913 126.05 112.631 125.552 111.167C125.054 109.687 124.805 108.083 124.805 106.354ZM132.21 105.893V106.354C132.21 107.248 132.276 108.083 132.408 108.859C132.54 109.636 132.759 110.317 133.067 110.903C133.375 111.474 133.792 111.921 134.319 112.243C134.847 112.565 135.506 112.727 136.297 112.727C137.073 112.727 137.718 112.565 138.23 112.243C138.758 111.921 139.175 111.474 139.483 110.903C139.791 110.317 140.01 109.636 140.142 108.859C140.274 108.083 140.34 107.248 140.34 106.354V105.893C140.34 105.029 140.274 104.216 140.142 103.454C140.01 102.678 139.791 101.997 139.483 101.411C139.175 100.81 138.758 100.341 138.23 100.004C137.703 99.6675 137.044 99.499 136.253 99.499C135.477 99.499 134.825 99.6675 134.297 100.004C133.785 100.341 133.375 100.81 133.067 101.411C132.759 101.997 132.54 102.678 132.408 103.454C132.276 104.216 132.21 105.029 132.21 105.893ZM158.27 110.925L162.664 94.2256H167.3L165.652 102.597L161.302 118H157.588L158.27 110.925ZM156.534 94.2256L159.258 110.793L159.566 118H155.062L149.437 94.2256H156.534ZM171.211 110.441L173.958 94.2256H181.055L175.474 118H170.97L171.211 110.441ZM167.828 94.2256L172.266 110.881L172.947 118H169.19L164.927 102.641L163.345 94.2256H167.828ZM209.466 86.0078V118H201.753V86.0078H209.466ZM219.09 86.0078V91.9624H192.349V86.0078H219.09ZM216.475 106.354V105.893C216.475 104.15 216.724 102.546 217.222 101.081C217.72 99.6016 218.453 98.3198 219.419 97.2358C220.386 96.1519 221.58 95.3096 223.001 94.709C224.422 94.0938 226.062 93.7861 227.923 93.7861C229.798 93.7861 231.446 94.0938 232.867 94.709C234.302 95.3096 235.503 96.1519 236.47 97.2358C237.437 98.3198 238.169 99.6016 238.667 101.081C239.166 102.546 239.415 104.15 239.415 105.893V106.354C239.415 108.083 239.166 109.687 238.667 111.167C238.169 112.631 237.437 113.913 236.47 115.012C235.503 116.096 234.31 116.938 232.889 117.539C231.468 118.139 229.827 118.439 227.967 118.439C226.106 118.439 224.458 118.139 223.023 117.539C221.587 116.938 220.386 116.096 219.419 115.012C218.453 113.913 217.72 112.631 217.222 111.167C216.724 109.687 216.475 108.083 216.475 106.354ZM223.88 105.893V106.354C223.88 107.248 223.946 108.083 224.078 108.859C224.209 109.636 224.429 110.317 224.737 110.903C225.044 111.474 225.462 111.921 225.989 112.243C226.517 112.565 227.176 112.727 227.967 112.727C228.743 112.727 229.388 112.565 229.9 112.243C230.428 111.921 230.845 111.474 231.153 110.903C231.46 110.317 231.68 109.636 231.812 108.859C231.944 108.083 232.01 107.248 232.01 106.354V105.893C232.01 105.029 231.944 104.216 231.812 103.454C231.68 102.678 231.46 101.997 231.153 101.411C230.845 100.81 230.428 100.341 229.9 100.004C229.373 99.6675 228.714 99.499 227.923 99.499C227.146 99.499 226.495 99.6675 225.967 100.004C225.455 100.341 225.044 100.81 224.737 101.411C224.429 101.997 224.209 102.678 224.078 103.454C223.946 104.216 223.88 105.029 223.88 105.893ZM254.268 86.0078H266.858C269.319 86.0078 271.458 86.374 273.274 87.1064C275.091 87.8389 276.49 88.9229 277.471 90.3584C278.467 91.7939 278.965 93.5664 278.965 95.6758C278.965 97.5068 278.68 99.0376 278.108 100.268C277.537 101.499 276.739 102.517 275.713 103.322C274.703 104.113 273.523 104.765 272.176 105.278L269.649 106.706H259.08L259.036 100.751H266.858C267.84 100.751 268.653 100.576 269.297 100.224C269.942 99.8726 270.425 99.3745 270.748 98.73C271.084 98.0708 271.253 97.2871 271.253 96.3789C271.253 95.4561 271.084 94.665 270.748 94.0059C270.411 93.3467 269.913 92.8413 269.253 92.4897C268.609 92.1382 267.811 91.9624 266.858 91.9624H261.98V118H254.268V86.0078ZM271.78 118L264.705 103.85L272.879 103.806L280.042 117.67V118H271.78ZM297.159 112.221V94.2256H304.585V118H297.642L297.159 112.221ZM297.862 107.387L299.795 107.343C299.795 108.94 299.605 110.419 299.224 111.782C298.843 113.129 298.279 114.301 297.532 115.297C296.8 116.293 295.892 117.07 294.808 117.626C293.738 118.168 292.5 118.439 291.094 118.439C289.922 118.439 288.846 118.278 287.864 117.956C286.897 117.619 286.062 117.099 285.359 116.396C284.656 115.678 284.107 114.763 283.711 113.649C283.331 112.521 283.14 111.174 283.14 109.606V94.2256H290.545V109.65C290.545 110.178 290.611 110.632 290.743 111.013C290.875 111.394 291.065 111.716 291.314 111.979C291.563 112.229 291.871 112.419 292.237 112.551C292.618 112.668 293.05 112.727 293.533 112.727C294.646 112.727 295.518 112.492 296.148 112.023C296.778 111.555 297.217 110.917 297.466 110.112C297.73 109.306 297.862 108.398 297.862 107.387ZM315.945 99.3013V118H308.541V94.2256H315.484L315.945 99.3013ZM315.066 105.3L313.331 105.344C313.331 103.527 313.55 101.909 313.99 100.488C314.429 99.0522 315.052 97.8364 315.857 96.8403C316.663 95.8442 317.623 95.0898 318.736 94.5771C319.864 94.0498 321.116 93.7861 322.493 93.7861C323.592 93.7861 324.595 93.9473 325.503 94.2695C326.426 94.5918 327.217 95.1118 327.876 95.8296C328.55 96.5474 329.063 97.4995 329.415 98.686C329.781 99.8579 329.964 101.308 329.964 103.037V118H322.515V103.015C322.515 102.062 322.383 101.337 322.12 100.839C321.856 100.327 321.475 99.9751 320.977 99.7847C320.479 99.5942 319.871 99.499 319.153 99.499C318.392 99.499 317.747 99.6455 317.22 99.9385C316.692 100.231 316.268 100.642 315.945 101.169C315.638 101.682 315.411 102.29 315.264 102.993C315.132 103.696 315.066 104.465 315.066 105.3ZM345.85 107.871H339.544C339.544 106.582 339.632 105.446 339.808 104.465C339.998 103.469 340.32 102.575 340.774 101.784C341.229 100.993 341.844 100.261 342.62 99.5869C343.309 99.0156 343.902 98.4663 344.4 97.939C344.898 97.4116 345.279 96.877 345.542 96.335C345.806 95.793 345.938 95.2144 345.938 94.5991C345.938 93.8374 345.828 93.2148 345.608 92.7314C345.403 92.248 345.088 91.8892 344.664 91.6548C344.253 91.4058 343.733 91.2812 343.104 91.2812C342.591 91.2812 342.107 91.4058 341.653 91.6548C341.214 91.9038 340.855 92.292 340.577 92.8193C340.298 93.332 340.145 94.0132 340.115 94.8628H332.667C332.71 92.6802 333.194 90.9077 334.117 89.5454C335.054 88.1685 336.299 87.165 337.852 86.5352C339.419 85.8906 341.17 85.5684 343.104 85.5684C345.242 85.5684 347.081 85.8979 348.619 86.5571C350.157 87.2163 351.336 88.1978 352.156 89.5015C352.977 90.7905 353.387 92.3799 353.387 94.2695C353.387 95.5293 353.145 96.6279 352.662 97.5654C352.193 98.4883 351.556 99.3525 350.75 100.158C349.959 100.949 349.073 101.799 348.091 102.707C347.242 103.454 346.663 104.216 346.355 104.992C346.048 105.754 345.879 106.713 345.85 107.871ZM338.643 114.55C338.643 113.496 339.024 112.617 339.786 111.914C340.547 111.196 341.536 110.837 342.752 110.837C343.968 110.837 344.957 111.196 345.718 111.914C346.48 112.617 346.861 113.496 346.861 114.55C346.861 115.605 346.48 116.491 345.718 117.209C344.957 117.912 343.968 118.264 342.752 118.264C341.536 118.264 340.547 117.912 339.786 117.209C339.024 116.491 338.643 115.605 338.643 114.55Z" fill="#424241"/>
<path d="M1363 15C1363 6.71573 1356.28 0 1348 0H1134V167H1348C1356.28 167 1363 160.284 1363 152V15Z" fill="#B16042"/>
<path d="M1260.77 81.3079C1263.96 81.3079 1267.09 82.2553 1269.74 84.0303C1272.4 85.8053 1274.47 88.3282 1275.69 91.2799C1276.92 94.2316 1277.24 97.4796 1276.61 100.613C1275.99 103.747 1274.45 106.625 1272.19 108.884C1269.93 111.143 1267.05 112.682 1263.92 113.305C1260.79 113.928 1257.54 113.608 1254.59 112.386C1251.64 111.163 1249.11 109.093 1247.34 106.436C1245.56 103.78 1244.62 100.657 1244.62 97.4617C1244.62 93.1774 1246.32 89.0686 1249.35 86.0392C1252.38 83.0098 1256.48 81.3079 1260.77 81.3079ZM1260.77 75.9233C1256.51 75.9233 1252.35 77.1865 1248.8 79.5532C1245.26 81.9198 1242.5 85.2837 1240.87 89.2193C1239.24 93.1549 1238.81 97.4856 1239.64 101.664C1240.48 105.842 1242.53 109.679 1245.54 112.692C1248.55 115.704 1252.39 117.755 1256.57 118.586C1260.75 119.417 1265.08 118.991 1269.01 117.361C1272.95 115.73 1276.31 112.97 1278.68 109.428C1281.04 105.886 1282.31 101.722 1282.31 97.4617C1282.31 91.7493 1280.04 86.271 1276 82.2317C1271.96 78.1925 1266.48 75.9233 1260.77 75.9233Z" fill="white"/>
<path d="M1274.23 49H1220.38C1218.96 49 1217.59 49.5673 1216.58 50.5771C1215.57 51.5869 1215 52.9565 1215 54.3846V108.231C1215 109.659 1215.57 111.028 1216.58 112.038C1217.59 113.048 1218.96 113.615 1220.38 113.615H1231.15V108.231H1220.38V70.5384H1279.62V54.3846C1279.62 52.9565 1279.05 51.5869 1278.04 50.5771C1277.03 49.5673 1275.66 49 1274.23 49ZM1220.38 65.1538V54.3846H1274.23V65.1538H1220.38Z" fill="white"/>
<path d="M1255.38 89.3849V105.539L1268.85 97.4618L1255.38 89.3849Z" fill="white"/>
</svg>
