<svg width="1363" height="301" viewBox="0 0 1363 301" fill="none" xmlns="http://www.w3.org/2000/svg">
<rect width="1363" height="301" rx="15" fill="#F0F0F0"/>
<path d="M0 15C0 6.71573 6.71573 0 15 0H37V301H15C6.71573 301 0 294.284 0 286V15Z" fill="#B16042"/>
<path d="M104.998 104.898V144H95.5986V104.898H104.998ZM120.091 121.146V144H111.041V114.942H119.527L120.091 121.146ZM119.017 128.478L116.895 128.531C116.895 126.311 117.164 124.333 117.701 122.596C118.238 120.842 118.999 119.356 119.983 118.138C120.968 116.921 122.141 115.999 123.501 115.372C124.88 114.728 126.411 114.405 128.094 114.405C129.437 114.405 130.663 114.602 131.773 114.996C132.901 115.39 133.868 116.026 134.673 116.903C135.497 117.78 136.124 118.944 136.553 120.394C137.001 121.826 137.225 123.599 137.225 125.711V144H128.121V125.685C128.121 124.521 127.959 123.635 127.637 123.026C127.315 122.399 126.849 121.97 126.241 121.737C125.632 121.504 124.889 121.388 124.012 121.388C123.081 121.388 122.293 121.567 121.648 121.925C121.004 122.283 120.485 122.784 120.091 123.429C119.715 124.055 119.437 124.798 119.258 125.658C119.097 126.517 119.017 127.457 119.017 128.478ZM169.021 120.421V127.672H148.96V120.421H169.021ZM152.103 104.898V144H142.676V104.898H152.103ZM175.359 104.898V144H165.96V104.898H175.359ZM179.791 129.767V129.203C179.791 127.072 180.095 125.112 180.704 123.321C181.312 121.513 182.208 119.946 183.389 118.622C184.571 117.297 186.03 116.267 187.767 115.533C189.503 114.781 191.508 114.405 193.782 114.405C196.074 114.405 198.088 114.781 199.825 115.533C201.579 116.267 203.047 117.297 204.229 118.622C205.411 119.946 206.306 121.513 206.915 123.321C207.523 125.112 207.828 127.072 207.828 129.203V129.767C207.828 131.879 207.523 133.84 206.915 135.648C206.306 137.438 205.411 139.005 204.229 140.348C203.047 141.673 201.588 142.702 199.852 143.436C198.115 144.17 196.11 144.537 193.836 144.537C191.562 144.537 189.548 144.17 187.793 143.436C186.039 142.702 184.571 141.673 183.389 140.348C182.208 139.005 181.312 137.438 180.704 135.648C180.095 133.84 179.791 131.879 179.791 129.767ZM188.841 129.203V129.767C188.841 130.859 188.921 131.879 189.083 132.828C189.244 133.777 189.512 134.61 189.888 135.326C190.264 136.024 190.774 136.57 191.419 136.964C192.063 137.358 192.869 137.555 193.836 137.555C194.785 137.555 195.573 137.358 196.199 136.964C196.844 136.57 197.354 136.024 197.73 135.326C198.106 134.61 198.375 133.777 198.536 132.828C198.697 131.879 198.777 130.859 198.777 129.767V129.203C198.777 128.146 198.697 127.153 198.536 126.222C198.375 125.273 198.106 124.44 197.73 123.724C197.354 122.99 196.844 122.417 196.199 122.005C195.555 121.594 194.749 121.388 193.782 121.388C192.833 121.388 192.037 121.594 191.392 122.005C190.765 122.417 190.264 122.99 189.888 123.724C189.512 124.44 189.244 125.273 189.083 126.222C188.921 127.153 188.841 128.146 188.841 129.203ZM220.987 121.092V144H211.937V114.942H220.423L220.987 121.092ZM219.886 128.478L217.818 128.531C217.818 126.49 218.06 124.61 218.543 122.892C219.026 121.173 219.743 119.678 220.691 118.407C221.64 117.136 222.804 116.151 224.183 115.453C225.579 114.754 227.19 114.405 229.017 114.405C230.288 114.405 231.443 114.602 232.481 114.996C233.519 115.372 234.415 115.972 235.167 116.795C235.918 117.601 236.491 118.657 236.885 119.964C237.297 121.253 237.503 122.802 237.503 124.61V144H228.453V125.765C228.453 124.53 228.309 123.599 228.023 122.972C227.754 122.346 227.361 121.925 226.841 121.71C226.322 121.495 225.687 121.388 224.935 121.388C224.147 121.388 223.44 121.567 222.813 121.925C222.186 122.283 221.649 122.784 221.202 123.429C220.772 124.055 220.441 124.798 220.208 125.658C219.993 126.517 219.886 127.457 219.886 128.478ZM236.482 128.478L233.958 128.531C233.958 126.49 234.182 124.61 234.629 122.892C235.095 121.173 235.784 119.678 236.697 118.407C237.628 117.136 238.783 116.151 240.162 115.453C241.54 114.754 243.143 114.405 244.969 114.405C246.294 114.405 247.511 114.602 248.621 114.996C249.731 115.39 250.689 116.026 251.495 116.903C252.3 117.78 252.927 118.944 253.375 120.394C253.822 121.826 254.046 123.599 254.046 125.711V144H244.969V125.711C244.969 124.512 244.826 123.608 244.539 122.999C244.271 122.372 243.877 121.952 243.357 121.737C242.838 121.504 242.221 121.388 241.504 121.388C240.645 121.388 239.902 121.567 239.275 121.925C238.649 122.283 238.121 122.784 237.691 123.429C237.279 124.055 236.975 124.798 236.778 125.658C236.581 126.517 236.482 127.457 236.482 128.478ZM273.301 144.537C270.938 144.537 268.825 144.17 266.963 143.436C265.101 142.684 263.526 141.655 262.237 140.348C260.966 139.041 259.99 137.537 259.31 135.836C258.647 134.135 258.316 132.336 258.316 130.438V129.417C258.316 127.287 258.611 125.318 259.202 123.509C259.793 121.683 260.67 120.09 261.834 118.729C262.998 117.368 264.457 116.312 266.211 115.56C267.966 114.79 270.007 114.405 272.334 114.405C274.393 114.405 276.237 114.736 277.867 115.399C279.496 116.061 280.875 117.01 282.002 118.246C283.148 119.481 284.017 120.976 284.607 122.73C285.216 124.485 285.521 126.454 285.521 128.639V132.318H261.78V126.651H276.685V125.953C276.703 124.986 276.533 124.163 276.175 123.482C275.835 122.802 275.333 122.283 274.671 121.925C274.008 121.567 273.203 121.388 272.254 121.388C271.269 121.388 270.455 121.603 269.81 122.032C269.183 122.462 268.691 123.053 268.333 123.805C267.993 124.539 267.751 125.389 267.608 126.356C267.465 127.323 267.393 128.343 267.393 129.417V130.438C267.393 131.512 267.536 132.488 267.823 133.365C268.127 134.243 268.557 134.994 269.112 135.621C269.685 136.23 270.365 136.704 271.153 137.044C271.958 137.385 272.872 137.555 273.892 137.555C275.127 137.555 276.345 137.322 277.544 136.856C278.744 136.391 279.773 135.621 280.633 134.547L284.742 139.435C284.151 140.276 283.309 141.091 282.217 141.878C281.143 142.666 279.854 143.311 278.35 143.812C276.846 144.295 275.163 144.537 273.301 144.537Z" fill="black"/>
<path d="M110.816 65.2515V69.2505H97.8276V65.2515H110.816ZM99.3486 55.1172V80H94.2217V55.1172H99.3486ZM114.473 55.1172V80H109.363V55.1172H114.473ZM128.606 75.8301V67.5928C128.606 67.0003 128.51 66.4933 128.316 66.0718C128.122 65.6388 127.82 65.3027 127.41 65.0635C127.011 64.8242 126.493 64.7046 125.855 64.7046C125.308 64.7046 124.835 64.8014 124.437 64.9951C124.038 65.1774 123.73 65.4451 123.514 65.7983C123.297 66.1401 123.189 66.5446 123.189 67.0117H118.267C118.267 66.2256 118.449 65.4793 118.814 64.7729C119.179 64.0666 119.708 63.4456 120.403 62.9102C121.098 62.3633 121.924 61.936 122.881 61.6284C123.85 61.3208 124.932 61.167 126.128 61.167C127.564 61.167 128.84 61.4062 129.957 61.8848C131.073 62.3633 131.95 63.0811 132.588 64.0381C133.238 64.9951 133.562 66.1914 133.562 67.627V75.5396C133.562 76.5535 133.625 77.3853 133.75 78.0347C133.876 78.6727 134.058 79.231 134.297 79.7095V80H129.324C129.085 79.4987 128.903 78.8721 128.777 78.1201C128.663 77.3568 128.606 76.5934 128.606 75.8301ZM129.256 68.7378L129.29 71.5234H126.539C125.889 71.5234 125.325 71.5975 124.847 71.7456C124.368 71.8937 123.975 72.1045 123.667 72.3779C123.36 72.64 123.132 72.9476 122.984 73.3008C122.847 73.654 122.779 74.0413 122.779 74.4629C122.779 74.8844 122.876 75.2661 123.069 75.6079C123.263 75.9383 123.542 76.2004 123.907 76.394C124.271 76.5763 124.699 76.6675 125.188 76.6675C125.929 76.6675 126.573 76.5194 127.12 76.2231C127.667 75.9269 128.088 75.5623 128.384 75.1294C128.692 74.6965 128.851 74.2863 128.863 73.8989L130.162 75.9839C129.979 76.451 129.729 76.9352 129.41 77.4365C129.102 77.9378 128.709 78.4106 128.23 78.855C127.752 79.2879 127.177 79.6468 126.504 79.9316C125.832 80.2051 125.035 80.3418 124.112 80.3418C122.938 80.3418 121.873 80.1082 120.916 79.6411C119.97 79.1626 119.218 78.5075 118.66 77.6758C118.113 76.8327 117.84 75.8757 117.84 74.8047C117.84 73.8363 118.022 72.9761 118.387 72.2241C118.751 71.4722 119.287 70.8398 119.993 70.3271C120.711 69.8031 121.605 69.41 122.676 69.1479C123.747 68.8745 124.989 68.7378 126.402 68.7378H129.256ZM142.637 75.2148L146.482 61.5088H149.61L148.602 66.8921L144.756 80H142.142L142.637 75.2148ZM140.689 61.5088L143.44 75.1978L143.697 80H140.621L135.938 61.5088H140.689ZM153.13 74.9756L155.813 61.5088H160.582L155.899 80H152.84L153.13 74.9756ZM150.037 61.5088L153.865 75.1123L154.395 80H151.763L147.918 66.9092L146.944 61.5088H150.037ZM167.981 65.542V80H163.06V61.5088H167.691L167.981 65.542ZM173.553 61.3892L173.467 65.9521C173.228 65.918 172.938 65.8895 172.596 65.8667C172.265 65.8325 171.963 65.8154 171.69 65.8154C170.995 65.8154 170.391 65.9066 169.878 66.0889C169.377 66.2598 168.956 66.5161 168.614 66.8579C168.283 67.1997 168.033 67.6156 167.862 68.1055C167.702 68.5954 167.611 69.1536 167.588 69.7803L166.597 69.4727C166.597 68.2764 166.717 67.1769 166.956 66.1743C167.195 65.1603 167.543 64.2773 167.999 63.5254C168.466 62.7734 169.035 62.1924 169.708 61.7822C170.38 61.3721 171.149 61.167 172.015 61.167C172.288 61.167 172.567 61.1898 172.852 61.2354C173.137 61.2695 173.37 61.3208 173.553 61.3892ZM185.276 75.8301V67.5928C185.276 67.0003 185.18 66.4933 184.986 66.0718C184.792 65.6388 184.49 65.3027 184.08 65.0635C183.681 64.8242 183.163 64.7046 182.525 64.7046C181.978 64.7046 181.505 64.8014 181.106 64.9951C180.708 65.1774 180.4 65.4451 180.184 65.7983C179.967 66.1401 179.859 66.5446 179.859 67.0117H174.937C174.937 66.2256 175.119 65.4793 175.484 64.7729C175.848 64.0666 176.378 63.4456 177.073 62.9102C177.768 62.3633 178.594 61.936 179.551 61.6284C180.52 61.3208 181.602 61.167 182.798 61.167C184.234 61.167 185.51 61.4062 186.626 61.8848C187.743 62.3633 188.62 63.0811 189.258 64.0381C189.908 64.9951 190.232 66.1914 190.232 67.627V75.5396C190.232 76.5535 190.295 77.3853 190.42 78.0347C190.546 78.6727 190.728 79.231 190.967 79.7095V80H185.994C185.755 79.4987 185.573 78.8721 185.447 78.1201C185.333 77.3568 185.276 76.5934 185.276 75.8301ZM185.926 68.7378L185.96 71.5234H183.208C182.559 71.5234 181.995 71.5975 181.517 71.7456C181.038 71.8937 180.645 72.1045 180.337 72.3779C180.03 72.64 179.802 72.9476 179.654 73.3008C179.517 73.654 179.449 74.0413 179.449 74.4629C179.449 74.8844 179.546 75.2661 179.739 75.6079C179.933 75.9383 180.212 76.2004 180.577 76.394C180.941 76.5763 181.368 76.6675 181.858 76.6675C182.599 76.6675 183.243 76.5194 183.79 76.2231C184.336 75.9269 184.758 75.5623 185.054 75.1294C185.362 74.6965 185.521 74.2863 185.533 73.8989L186.832 75.9839C186.649 76.451 186.399 76.9352 186.08 77.4365C185.772 77.9378 185.379 78.4106 184.9 78.855C184.422 79.2879 183.847 79.6468 183.174 79.9316C182.502 80.2051 181.705 80.3418 180.782 80.3418C179.608 80.3418 178.543 80.1082 177.586 79.6411C176.64 79.1626 175.888 78.5075 175.33 77.6758C174.783 76.8327 174.51 75.8757 174.51 74.8047C174.51 73.8363 174.692 72.9761 175.057 72.2241C175.421 71.4722 175.957 70.8398 176.663 70.3271C177.381 69.8031 178.275 69.41 179.346 69.1479C180.417 68.8745 181.659 68.7378 183.072 68.7378H185.926ZM204.007 75.8301V67.5928C204.007 67.0003 203.91 66.4933 203.716 66.0718C203.523 65.6388 203.221 65.3027 202.811 65.0635C202.412 64.8242 201.893 64.7046 201.255 64.7046C200.708 64.7046 200.236 64.8014 199.837 64.9951C199.438 65.1774 199.131 65.4451 198.914 65.7983C198.698 66.1401 198.589 66.5446 198.589 67.0117H193.667C193.667 66.2256 193.85 65.4793 194.214 64.7729C194.579 64.0666 195.109 63.4456 195.804 62.9102C196.499 62.3633 197.325 61.936 198.282 61.6284C199.25 61.3208 200.333 61.167 201.529 61.167C202.964 61.167 204.24 61.4062 205.357 61.8848C206.473 62.3633 207.351 63.0811 207.989 64.0381C208.638 64.9951 208.963 66.1914 208.963 67.627V75.5396C208.963 76.5535 209.026 77.3853 209.151 78.0347C209.276 78.6727 209.458 79.231 209.698 79.7095V80H204.725C204.485 79.4987 204.303 78.8721 204.178 78.1201C204.064 77.3568 204.007 76.5934 204.007 75.8301ZM204.656 68.7378L204.69 71.5234H201.939C201.29 71.5234 200.726 71.5975 200.247 71.7456C199.769 71.8937 199.375 72.1045 199.068 72.3779C198.76 72.64 198.532 72.9476 198.384 73.3008C198.248 73.654 198.179 74.0413 198.179 74.4629C198.179 74.8844 198.276 75.2661 198.47 75.6079C198.663 75.9383 198.943 76.2004 199.307 76.394C199.672 76.5763 200.099 76.6675 200.589 76.6675C201.329 76.6675 201.973 76.5194 202.52 76.2231C203.067 75.9269 203.488 75.5623 203.785 75.1294C204.092 74.6965 204.252 74.2863 204.263 73.8989L205.562 75.9839C205.38 76.451 205.129 76.9352 204.81 77.4365C204.502 77.9378 204.109 78.4106 203.631 78.855C203.152 79.2879 202.577 79.6468 201.905 79.9316C201.233 80.2051 200.435 80.3418 199.512 80.3418C198.339 80.3418 197.273 80.1082 196.316 79.6411C195.371 79.1626 194.619 78.5075 194.061 77.6758C193.514 76.8327 193.24 75.8757 193.24 74.8047C193.24 73.8363 193.423 72.9761 193.787 72.2241C194.152 71.4722 194.687 70.8398 195.394 70.3271C196.111 69.8031 197.006 69.41 198.077 69.1479C199.148 68.8745 200.389 68.7378 201.802 68.7378H204.656ZM225.198 55.1172L230.394 66.4648L235.589 55.1172H241.177L232.991 70.9424V80H227.796V70.9424L219.593 55.1172H225.198ZM241.229 70.9424V70.5835C241.229 69.2277 241.422 67.9801 241.81 66.8408C242.197 65.6901 242.761 64.6932 243.501 63.8501C244.242 63.007 245.153 62.3519 246.236 61.8848C247.318 61.4062 248.56 61.167 249.961 61.167C251.363 61.167 252.61 61.4062 253.704 61.8848C254.798 62.3519 255.715 63.007 256.456 63.8501C257.208 64.6932 257.777 65.6901 258.165 66.8408C258.552 67.9801 258.746 69.2277 258.746 70.5835V70.9424C258.746 72.2868 258.552 73.5343 258.165 74.6851C257.777 75.8244 257.208 76.8213 256.456 77.6758C255.715 78.5189 254.804 79.174 253.721 79.6411C252.639 80.1082 251.397 80.3418 249.996 80.3418C248.594 80.3418 247.347 80.1082 246.253 79.6411C245.171 79.174 244.253 78.5189 243.501 77.6758C242.761 76.8213 242.197 75.8244 241.81 74.6851C241.422 73.5343 241.229 72.2868 241.229 70.9424ZM246.15 70.5835V70.9424C246.15 71.7171 246.219 72.4406 246.355 73.1128C246.492 73.785 246.709 74.3774 247.005 74.8901C247.312 75.3914 247.711 75.7845 248.201 76.0693C248.691 76.3542 249.289 76.4966 249.996 76.4966C250.679 76.4966 251.266 76.3542 251.756 76.0693C252.246 75.7845 252.639 75.3914 252.935 74.8901C253.231 74.3774 253.448 73.785 253.584 73.1128C253.733 72.4406 253.807 71.7171 253.807 70.9424V70.5835C253.807 69.8315 253.733 69.1252 253.584 68.4644C253.448 67.7922 253.226 67.1997 252.918 66.687C252.622 66.1629 252.229 65.7528 251.739 65.4565C251.249 65.1603 250.656 65.0122 249.961 65.0122C249.266 65.0122 248.674 65.1603 248.184 65.4565C247.706 65.7528 247.312 66.1629 247.005 66.687C246.709 67.1997 246.492 67.7922 246.355 68.4644C246.219 69.1252 246.15 69.8315 246.15 70.5835ZM272.708 75.5737V61.5088H277.63V80H272.999L272.708 75.5737ZM273.255 71.7798L274.708 71.7456C274.708 72.9761 274.565 74.1211 274.28 75.1807C273.995 76.2288 273.568 77.1403 272.999 77.915C272.429 78.6784 271.711 79.2765 270.845 79.7095C269.979 80.131 268.96 80.3418 267.786 80.3418C266.886 80.3418 266.054 80.2165 265.291 79.9658C264.539 79.7038 263.89 79.2993 263.343 78.7524C262.807 78.1942 262.386 77.4821 262.078 76.6162C261.782 75.7389 261.634 74.6851 261.634 73.4546V61.5088H266.556V73.4888C266.556 74.0356 266.618 74.4971 266.744 74.873C266.88 75.249 267.068 75.5566 267.308 75.7959C267.547 76.0352 267.826 76.2061 268.145 76.3086C268.475 76.4111 268.84 76.4624 269.239 76.4624C270.253 76.4624 271.05 76.2573 271.631 75.8472C272.224 75.437 272.64 74.8787 272.879 74.1724C273.13 73.4546 273.255 72.6571 273.255 71.7798ZM286.209 65.4565V80H281.287V61.5088H285.901L286.209 65.4565ZM285.491 70.105H284.158C284.158 68.7378 284.335 67.5073 284.688 66.4136C285.041 65.3084 285.537 64.3685 286.175 63.5938C286.813 62.8076 287.57 62.2095 288.448 61.7993C289.336 61.3778 290.328 61.167 291.421 61.167C292.287 61.167 293.079 61.2923 293.797 61.543C294.515 61.7936 295.13 62.1924 295.643 62.7393C296.167 63.2861 296.565 64.0096 296.839 64.9097C297.124 65.8097 297.266 66.9092 297.266 68.208V80H292.31V68.1909C292.31 67.3706 292.196 66.7326 291.968 66.2769C291.74 65.8211 291.404 65.5021 290.96 65.3198C290.527 65.1261 289.992 65.0293 289.354 65.0293C288.693 65.0293 288.117 65.1603 287.627 65.4224C287.149 65.6844 286.75 66.049 286.431 66.5161C286.124 66.9718 285.89 67.5073 285.73 68.1226C285.571 68.7378 285.491 69.3986 285.491 70.105ZM309.52 80.3418C308.084 80.3418 306.797 80.1139 305.657 79.6582C304.518 79.1911 303.549 78.5474 302.752 77.7271C301.966 76.9067 301.362 75.9554 300.94 74.873C300.519 73.7793 300.308 72.6172 300.308 71.3867V70.7031C300.308 69.3018 300.507 68.02 300.906 66.8579C301.305 65.6958 301.875 64.6875 302.615 63.833C303.367 62.9785 304.279 62.3234 305.35 61.8677C306.421 61.4006 307.628 61.167 308.973 61.167C310.283 61.167 311.445 61.3835 312.459 61.8164C313.473 62.2493 314.322 62.8646 315.005 63.6621C315.7 64.4596 316.224 65.4167 316.578 66.5332C316.931 67.6383 317.107 68.8688 317.107 70.2246V72.2754H302.41V68.9941H312.271V68.6182C312.271 67.9346 312.146 67.325 311.895 66.7896C311.656 66.2427 311.291 65.8097 310.801 65.4907C310.311 65.1717 309.685 65.0122 308.921 65.0122C308.272 65.0122 307.714 65.1546 307.247 65.4395C306.779 65.7243 306.398 66.123 306.102 66.6357C305.817 67.1484 305.6 67.7523 305.452 68.4473C305.315 69.1309 305.247 69.8828 305.247 70.7031V71.3867C305.247 72.1273 305.35 72.8109 305.555 73.4375C305.771 74.0641 306.073 74.6053 306.46 75.061C306.859 75.5168 307.338 75.87 307.896 76.1206C308.466 76.3713 309.109 76.4966 309.827 76.4966C310.716 76.4966 311.542 76.3257 312.305 75.9839C313.08 75.6307 313.746 75.1009 314.305 74.3945L316.697 76.9922C316.31 77.5505 315.78 78.0859 315.108 78.5986C314.447 79.1113 313.65 79.5329 312.715 79.8633C311.781 80.1823 310.716 80.3418 309.52 80.3418ZM329.908 74.8901C329.908 74.5369 329.805 74.2179 329.6 73.9331C329.395 73.6483 329.013 73.3862 328.455 73.147C327.908 72.8963 327.116 72.6685 326.08 72.4634C325.145 72.2583 324.274 72.002 323.465 71.6943C322.667 71.3753 321.972 70.9937 321.38 70.5493C320.799 70.105 320.343 69.5809 320.013 68.9771C319.682 68.3618 319.517 67.6611 319.517 66.875C319.517 66.1003 319.682 65.3711 320.013 64.6875C320.354 64.0039 320.839 63.4001 321.465 62.876C322.103 62.3405 322.878 61.9246 323.79 61.6284C324.712 61.3208 325.749 61.167 326.9 61.167C328.506 61.167 329.885 61.4233 331.036 61.936C332.198 62.4487 333.086 63.1551 333.702 64.0552C334.328 64.9438 334.642 65.9578 334.642 67.0972H329.72C329.72 66.6187 329.617 66.1914 329.412 65.8154C329.218 65.4281 328.911 65.1261 328.489 64.9097C328.079 64.6818 327.544 64.5679 326.883 64.5679C326.336 64.5679 325.863 64.6647 325.464 64.8584C325.066 65.0407 324.758 65.2913 324.542 65.6104C324.336 65.918 324.234 66.2598 324.234 66.6357C324.234 66.9206 324.291 67.1769 324.405 67.4048C324.53 67.6213 324.729 67.8206 325.003 68.0029C325.276 68.1852 325.63 68.3561 326.062 68.5156C326.507 68.6637 327.054 68.8005 327.703 68.9258C329.036 69.1992 330.227 69.5581 331.275 70.0024C332.323 70.4354 333.155 71.0278 333.77 71.7798C334.385 72.5203 334.693 73.4945 334.693 74.7021C334.693 75.5225 334.511 76.2744 334.146 76.958C333.781 77.6416 333.257 78.2397 332.574 78.7524C331.89 79.2537 331.07 79.6468 330.113 79.9316C329.167 80.2051 328.102 80.3418 326.917 80.3418C325.197 80.3418 323.738 80.0342 322.542 79.4189C321.357 78.8037 320.457 78.0233 319.842 77.0776C319.238 76.1206 318.936 75.1408 318.936 74.1382H323.602C323.624 74.8104 323.795 75.3516 324.114 75.7617C324.445 76.1719 324.861 76.4681 325.362 76.6504C325.875 76.8327 326.427 76.9238 327.02 76.9238C327.658 76.9238 328.187 76.8384 328.609 76.6675C329.03 76.4852 329.349 76.2459 329.566 75.9497C329.794 75.6421 329.908 75.2889 329.908 74.8901Z" fill="#888888"/>
<rect x="92" y="181" width="1179" height="80" rx="13.3333" fill="#CCCCCC"/>
<rect x="107" y="196.333" width="208" height="49.3333" rx="4.66667" fill="#888888" stroke="#888888" stroke-width="4"/>
<path d="M171.823 213.167H177.792C178.958 213.167 179.972 213.34 180.833 213.687C181.694 214.035 182.358 214.549 182.823 215.229C183.295 215.91 183.531 216.75 183.531 217.75C183.531 218.618 183.396 219.344 183.125 219.927C182.854 220.51 182.476 220.993 181.99 221.375C181.51 221.75 180.951 222.059 180.312 222.302L179.115 222.979H174.104L174.083 220.156H177.792C178.257 220.156 178.642 220.073 178.948 219.906C179.253 219.74 179.483 219.503 179.635 219.198C179.795 218.885 179.875 218.514 179.875 218.083C179.875 217.646 179.795 217.271 179.635 216.958C179.476 216.646 179.24 216.406 178.927 216.24C178.622 216.073 178.243 215.99 177.792 215.99H175.479V228.333H171.823V213.167ZM180.125 228.333L176.771 221.625L180.646 221.604L184.042 228.177V228.333H180.125ZM191.031 228.542C190.115 228.542 189.295 228.399 188.573 228.115C187.851 227.823 187.24 227.424 186.74 226.917C186.247 226.41 185.868 225.826 185.604 225.167C185.347 224.507 185.219 223.809 185.219 223.073V222.677C185.219 221.851 185.333 221.087 185.562 220.385C185.792 219.677 186.132 219.059 186.583 218.531C187.035 218.003 187.601 217.594 188.281 217.302C188.962 217.003 189.753 216.854 190.656 216.854C191.455 216.854 192.17 216.983 192.802 217.24C193.434 217.497 193.969 217.865 194.406 218.344C194.851 218.823 195.187 219.403 195.417 220.083C195.653 220.764 195.771 221.528 195.771 222.375V223.802H186.562V221.604H192.344V221.333C192.351 220.958 192.285 220.639 192.146 220.375C192.014 220.111 191.819 219.91 191.562 219.771C191.306 219.632 190.993 219.562 190.625 219.562C190.243 219.562 189.927 219.646 189.677 219.812C189.434 219.979 189.243 220.208 189.104 220.5C188.972 220.785 188.878 221.115 188.823 221.49C188.767 221.865 188.74 222.26 188.74 222.677V223.073C188.74 223.49 188.795 223.868 188.906 224.208C189.024 224.549 189.191 224.84 189.406 225.083C189.628 225.319 189.892 225.503 190.198 225.635C190.51 225.767 190.865 225.833 191.26 225.833C191.74 225.833 192.212 225.743 192.677 225.562C193.142 225.382 193.542 225.083 193.875 224.667L195.469 226.562C195.24 226.889 194.913 227.205 194.49 227.51C194.073 227.816 193.573 228.066 192.99 228.26C192.406 228.448 191.753 228.542 191.031 228.542ZM203.052 225.5V220.854C203.052 220.535 203.007 220.26 202.917 220.031C202.826 219.802 202.684 219.625 202.49 219.5C202.295 219.368 202.035 219.302 201.708 219.302C201.444 219.302 201.219 219.347 201.031 219.437C200.844 219.528 200.701 219.663 200.604 219.844C200.507 220.024 200.458 220.253 200.458 220.531H196.948C196.948 220.01 197.062 219.528 197.292 219.083C197.528 218.632 197.861 218.24 198.292 217.906C198.729 217.573 199.25 217.316 199.854 217.135C200.465 216.948 201.146 216.854 201.896 216.854C202.792 216.854 203.59 217.003 204.292 217.302C205 217.601 205.559 218.049 205.969 218.646C206.378 219.236 206.583 219.979 206.583 220.875V225.49C206.583 226.226 206.625 226.785 206.708 227.167C206.792 227.542 206.91 227.872 207.062 228.156V228.333H203.542C203.375 227.986 203.25 227.562 203.167 227.062C203.09 226.556 203.052 226.035 203.052 225.5ZM203.479 221.448L203.5 223.323H201.948C201.622 223.323 201.344 223.368 201.115 223.458C200.892 223.549 200.712 223.674 200.573 223.833C200.441 223.986 200.344 224.16 200.281 224.354C200.226 224.549 200.198 224.753 200.198 224.969C200.198 225.177 200.247 225.365 200.344 225.531C200.448 225.691 200.587 225.816 200.76 225.906C200.934 225.997 201.128 226.042 201.344 226.042C201.733 226.042 202.062 225.969 202.333 225.823C202.611 225.67 202.823 225.486 202.969 225.271C203.115 225.056 203.187 224.854 203.187 224.667L203.958 226.104C203.819 226.382 203.66 226.663 203.479 226.948C203.306 227.233 203.087 227.497 202.823 227.74C202.566 227.976 202.25 228.17 201.875 228.323C201.5 228.469 201.045 228.542 200.51 228.542C199.816 228.542 199.177 228.399 198.594 228.115C198.017 227.83 197.556 227.434 197.208 226.927C196.861 226.413 196.687 225.823 196.687 225.156C196.687 224.573 196.792 224.052 197 223.594C197.215 223.135 197.538 222.747 197.969 222.427C198.399 222.108 198.948 221.865 199.615 221.698C200.281 221.531 201.066 221.448 201.969 221.448H203.479ZM213.292 225.833C213.618 225.833 213.896 225.774 214.125 225.656C214.361 225.531 214.538 225.358 214.656 225.135C214.781 224.906 214.84 224.632 214.833 224.312H218.135C218.142 225.16 217.934 225.903 217.51 226.542C217.094 227.174 216.524 227.667 215.802 228.021C215.087 228.368 214.278 228.542 213.375 228.542C212.493 228.542 211.722 228.399 211.062 228.115C210.403 227.823 209.851 227.42 209.406 226.906C208.969 226.385 208.639 225.778 208.417 225.083C208.201 224.389 208.094 223.635 208.094 222.823V222.583C208.094 221.771 208.201 221.017 208.417 220.323C208.639 219.622 208.969 219.014 209.406 218.5C209.851 217.979 210.399 217.576 211.052 217.292C211.712 217 212.479 216.854 213.354 216.854C214.292 216.854 215.118 217.031 215.833 217.385C216.556 217.74 217.122 218.253 217.531 218.927C217.941 219.601 218.142 220.417 218.135 221.375H214.833C214.84 221.035 214.788 220.729 214.677 220.458C214.566 220.187 214.392 219.972 214.156 219.812C213.927 219.646 213.632 219.562 213.271 219.562C212.91 219.562 212.618 219.642 212.396 219.802C212.174 219.962 212.003 220.184 211.885 220.469C211.774 220.747 211.698 221.066 211.656 221.427C211.622 221.788 211.604 222.174 211.604 222.583V222.823C211.604 223.24 211.622 223.632 211.656 224C211.698 224.361 211.778 224.681 211.896 224.958C212.014 225.229 212.184 225.444 212.406 225.604C212.628 225.757 212.924 225.833 213.292 225.833ZM225.573 217.062V219.5H218.781V217.062H225.573ZM220.208 214.26H223.719V224.656C223.719 224.955 223.753 225.187 223.823 225.354C223.892 225.514 224.01 225.628 224.177 225.698C224.351 225.76 224.58 225.792 224.865 225.792C225.066 225.792 225.233 225.788 225.365 225.781C225.497 225.767 225.622 225.75 225.74 225.729V228.24C225.441 228.337 225.128 228.41 224.802 228.458C224.476 228.514 224.128 228.542 223.76 228.542C223.01 228.542 222.368 228.424 221.833 228.187C221.306 227.951 220.903 227.58 220.625 227.073C220.347 226.566 220.208 225.906 220.208 225.094V214.26ZM233.167 223.573V213.167H236.812V223.573C236.812 224.587 236.58 225.465 236.115 226.208C235.656 226.951 235.031 227.528 234.24 227.937C233.455 228.34 232.573 228.542 231.594 228.542C230.58 228.542 229.677 228.372 228.885 228.031C228.101 227.691 227.483 227.167 227.031 226.458C226.587 225.75 226.365 224.847 226.365 223.75H230.031C230.031 224.264 230.09 224.667 230.208 224.958C230.326 225.243 230.5 225.444 230.729 225.562C230.965 225.674 231.253 225.729 231.594 225.729C231.927 225.729 232.208 225.646 232.437 225.479C232.674 225.306 232.854 225.059 232.979 224.74C233.104 224.413 233.167 224.024 233.167 223.573ZM246.948 224.302C246.948 224.066 246.913 223.854 246.844 223.667C246.774 223.472 246.646 223.292 246.458 223.125C246.271 222.958 246 222.792 245.646 222.625C245.299 222.451 244.84 222.271 244.271 222.083C243.604 221.861 242.962 221.611 242.344 221.333C241.726 221.049 241.174 220.719 240.687 220.344C240.201 219.962 239.816 219.517 239.531 219.01C239.247 218.497 239.104 217.899 239.104 217.219C239.104 216.566 239.25 215.979 239.542 215.458C239.833 214.931 240.24 214.483 240.76 214.115C241.288 213.74 241.906 213.455 242.615 213.26C243.323 213.059 244.097 212.958 244.937 212.958C246.049 212.958 247.028 213.153 247.875 213.542C248.729 213.924 249.396 214.469 249.875 215.177C250.361 215.878 250.604 216.708 250.604 217.667H246.969C246.969 217.285 246.889 216.948 246.729 216.656C246.576 216.365 246.344 216.135 246.031 215.969C245.719 215.802 245.326 215.719 244.854 215.719C244.396 215.719 244.01 215.788 243.698 215.927C243.385 216.066 243.149 216.253 242.99 216.49C242.83 216.719 242.75 216.972 242.75 217.25C242.75 217.479 242.812 217.687 242.937 217.875C243.069 218.056 243.253 218.226 243.49 218.385C243.733 218.545 244.024 218.698 244.365 218.844C244.712 218.99 245.101 219.132 245.531 219.271C246.337 219.528 247.052 219.816 247.677 220.135C248.309 220.448 248.84 220.806 249.271 221.208C249.708 221.604 250.038 222.056 250.26 222.562C250.49 223.069 250.604 223.642 250.604 224.281C250.604 224.962 250.472 225.566 250.208 226.094C249.944 226.622 249.566 227.069 249.073 227.437C248.58 227.799 247.99 228.073 247.302 228.26C246.615 228.448 245.847 228.542 245 228.542C244.222 228.542 243.455 228.444 242.698 228.25C241.948 228.049 241.267 227.743 240.656 227.333C240.045 226.917 239.556 226.385 239.187 225.74C238.826 225.087 238.646 224.312 238.646 223.417H242.312C242.312 223.861 242.372 224.236 242.49 224.542C242.608 224.847 242.781 225.094 243.01 225.281C243.24 225.462 243.521 225.594 243.854 225.677C244.187 225.753 244.569 225.792 245 225.792C245.465 225.792 245.84 225.726 246.125 225.594C246.41 225.455 246.618 225.274 246.75 225.052C246.882 224.823 246.948 224.573 246.948 224.302Z" fill="white"/>
<rect x="339" y="196.333" width="208" height="49.3333" rx="4.66667" fill="#888888" stroke="#888888" stroke-width="4"/>
<path d="M419.073 225.521V228.333H411.406V225.521H419.073ZM412.708 213.167V228.333H409.052V213.167H412.708ZM426.302 225.5V220.854C426.302 220.535 426.257 220.26 426.167 220.031C426.076 219.802 425.934 219.625 425.74 219.5C425.545 219.368 425.285 219.302 424.958 219.302C424.694 219.302 424.469 219.347 424.281 219.437C424.094 219.528 423.951 219.663 423.854 219.844C423.757 220.024 423.708 220.253 423.708 220.531H420.198C420.198 220.01 420.312 219.528 420.542 219.083C420.778 218.632 421.111 218.24 421.542 217.906C421.979 217.573 422.5 217.316 423.104 217.135C423.715 216.948 424.396 216.854 425.146 216.854C426.042 216.854 426.84 217.003 427.542 217.302C428.25 217.601 428.809 218.049 429.219 218.646C429.628 219.236 429.833 219.979 429.833 220.875V225.49C429.833 226.226 429.875 226.785 429.958 227.167C430.042 227.542 430.16 227.872 430.312 228.156V228.333H426.792C426.625 227.986 426.5 227.562 426.417 227.062C426.34 226.556 426.302 226.035 426.302 225.5ZM426.729 221.448L426.75 223.323H425.198C424.872 223.323 424.594 223.368 424.365 223.458C424.142 223.549 423.962 223.674 423.823 223.833C423.691 223.986 423.594 224.16 423.531 224.354C423.476 224.549 423.448 224.753 423.448 224.969C423.448 225.177 423.497 225.365 423.594 225.531C423.698 225.691 423.837 225.816 424.01 225.906C424.184 225.997 424.378 226.042 424.594 226.042C424.983 226.042 425.312 225.969 425.583 225.823C425.861 225.67 426.073 225.486 426.219 225.271C426.365 225.056 426.437 224.854 426.437 224.667L427.208 226.104C427.069 226.382 426.91 226.663 426.729 226.948C426.556 227.233 426.337 227.497 426.073 227.74C425.816 227.976 425.5 228.17 425.125 228.323C424.75 228.469 424.295 228.542 423.76 228.542C423.066 228.542 422.427 228.399 421.844 228.115C421.267 227.83 420.806 227.434 420.458 226.927C420.111 226.413 419.937 225.823 419.937 225.156C419.937 224.573 420.042 224.052 420.25 223.594C420.465 223.135 420.788 222.747 421.219 222.427C421.649 222.108 422.198 221.865 422.865 221.698C423.531 221.531 424.316 221.448 425.219 221.448H426.729ZM435.323 219.854V228.333H431.812V217.062H435.094L435.323 219.854ZM438.656 216.979L438.594 220.24C438.455 220.226 438.267 220.208 438.031 220.187C437.795 220.167 437.597 220.156 437.437 220.156C437.028 220.156 436.674 220.205 436.375 220.302C436.083 220.392 435.84 220.531 435.646 220.719C435.458 220.899 435.319 221.128 435.229 221.406C435.146 221.684 435.108 222.007 435.115 222.375L434.479 221.958C434.479 221.201 434.552 220.514 434.698 219.896C434.851 219.271 435.066 218.733 435.344 218.281C435.622 217.823 435.958 217.472 436.354 217.229C436.75 216.979 437.194 216.854 437.687 216.854C437.861 216.854 438.031 216.865 438.198 216.885C438.372 216.906 438.524 216.937 438.656 216.979ZM445.406 225.5V220.854C445.406 220.535 445.361 220.26 445.271 220.031C445.181 219.802 445.038 219.625 444.844 219.5C444.649 219.368 444.389 219.302 444.063 219.302C443.799 219.302 443.573 219.347 443.385 219.437C443.198 219.528 443.056 219.663 442.958 219.844C442.861 220.024 442.813 220.253 442.813 220.531H439.302C439.302 220.01 439.417 219.528 439.646 219.083C439.882 218.632 440.215 218.24 440.646 217.906C441.083 217.573 441.604 217.316 442.208 217.135C442.819 216.948 443.5 216.854 444.25 216.854C445.146 216.854 445.944 217.003 446.646 217.302C447.354 217.601 447.913 218.049 448.323 218.646C448.733 219.236 448.938 219.979 448.938 220.875V225.49C448.938 226.226 448.979 226.785 449.063 227.167C449.146 227.542 449.264 227.872 449.417 228.156V228.333H445.896C445.729 227.986 445.604 227.562 445.521 227.062C445.444 226.556 445.406 226.035 445.406 225.5ZM445.833 221.448L445.854 223.323H444.302C443.976 223.323 443.698 223.368 443.469 223.458C443.247 223.549 443.066 223.674 442.927 223.833C442.795 223.986 442.698 224.16 442.635 224.354C442.58 224.549 442.552 224.753 442.552 224.969C442.552 225.177 442.601 225.365 442.698 225.531C442.802 225.691 442.941 225.816 443.115 225.906C443.288 225.997 443.483 226.042 443.698 226.042C444.087 226.042 444.417 225.969 444.688 225.823C444.965 225.67 445.177 225.486 445.323 225.271C445.469 225.056 445.542 224.854 445.542 224.667L446.313 226.104C446.174 226.382 446.014 226.663 445.833 226.948C445.66 227.233 445.441 227.497 445.177 227.74C444.92 227.976 444.604 228.17 444.229 228.323C443.854 228.469 443.399 228.542 442.865 228.542C442.17 228.542 441.531 228.399 440.948 228.115C440.372 227.83 439.91 227.434 439.563 226.927C439.215 226.413 439.042 225.823 439.042 225.156C439.042 224.573 439.146 224.052 439.354 223.594C439.569 223.135 439.892 222.747 440.323 222.427C440.753 222.108 441.302 221.865 441.969 221.698C442.635 221.531 443.42 221.448 444.323 221.448H445.833ZM454.781 225.927L457 217.062H460.698L457.01 228.333H454.823L454.781 225.927ZM453.469 217.062L455.656 225.927L455.635 228.333H453.437L449.76 217.062H453.469ZM467.052 228.542C466.135 228.542 465.316 228.399 464.594 228.115C463.872 227.823 463.26 227.424 462.76 226.917C462.267 226.41 461.889 225.826 461.625 225.167C461.368 224.507 461.24 223.809 461.24 223.073V222.677C461.24 221.851 461.354 221.087 461.583 220.385C461.812 219.677 462.153 219.059 462.604 218.531C463.056 218.003 463.622 217.594 464.302 217.302C464.983 217.003 465.774 216.854 466.677 216.854C467.476 216.854 468.191 216.983 468.823 217.24C469.455 217.497 469.99 217.865 470.427 218.344C470.872 218.823 471.208 219.403 471.437 220.083C471.674 220.764 471.792 221.528 471.792 222.375V223.802H462.583V221.604H468.365V221.333C468.372 220.958 468.306 220.639 468.167 220.375C468.035 220.111 467.84 219.91 467.583 219.771C467.326 219.632 467.014 219.562 466.646 219.562C466.264 219.562 465.948 219.646 465.698 219.812C465.455 219.979 465.264 220.208 465.125 220.5C464.993 220.785 464.899 221.115 464.844 221.49C464.788 221.865 464.76 222.26 464.76 222.677V223.073C464.76 223.49 464.816 223.868 464.927 224.208C465.045 224.549 465.212 224.84 465.427 225.083C465.649 225.319 465.913 225.503 466.219 225.635C466.531 225.767 466.885 225.833 467.281 225.833C467.76 225.833 468.233 225.743 468.698 225.562C469.163 225.382 469.562 225.083 469.896 224.667L471.49 226.562C471.26 226.889 470.934 227.205 470.51 227.51C470.094 227.816 469.594 228.066 469.01 228.26C468.427 228.448 467.774 228.542 467.052 228.542ZM476.927 212.333V228.333H473.406V212.333H476.927Z" fill="white"/>
<rect x="571" y="196.333" width="208" height="49.3333" rx="4.66667" fill="#888888" stroke="#888888" stroke-width="4"/>
<path d="M644.396 216.354L640.698 228.333H636.771L642.344 213.167H644.833L644.396 216.354ZM647.458 228.333L643.75 216.354L643.271 213.167H645.792L651.396 228.333H647.458ZM647.313 222.677V225.5H639.531V222.677H647.313ZM655.885 219.854V228.333H652.375V217.062H655.656L655.885 219.854ZM659.219 216.979L659.156 220.24C659.017 220.226 658.83 220.208 658.594 220.187C658.358 220.167 658.16 220.156 658 220.156C657.59 220.156 657.236 220.205 656.937 220.302C656.646 220.392 656.403 220.531 656.208 220.719C656.021 220.899 655.882 221.128 655.792 221.406C655.708 221.684 655.67 222.007 655.677 222.375L655.042 221.958C655.042 221.201 655.115 220.514 655.26 219.896C655.413 219.271 655.628 218.733 655.906 218.281C656.184 217.823 656.521 217.472 656.917 217.229C657.312 216.979 657.757 216.854 658.25 216.854C658.424 216.854 658.594 216.865 658.76 216.885C658.934 216.906 659.087 216.937 659.219 216.979ZM666.698 225.75V212.333H670.229V228.333H667.063L666.698 225.75ZM659.781 222.833V222.615C659.781 221.76 659.875 220.983 660.063 220.281C660.25 219.573 660.528 218.965 660.896 218.458C661.264 217.944 661.722 217.549 662.271 217.271C662.819 216.993 663.451 216.854 664.167 216.854C664.806 216.854 665.365 217.003 665.844 217.302C666.323 217.594 666.733 218.003 667.073 218.531C667.413 219.059 667.691 219.677 667.906 220.385C668.122 221.087 668.285 221.844 668.396 222.656V222.917C668.285 223.681 668.122 224.403 667.906 225.083C667.691 225.757 667.413 226.354 667.073 226.875C666.733 227.396 666.319 227.806 665.833 228.104C665.354 228.396 664.792 228.542 664.146 228.542C663.431 228.542 662.799 228.399 662.25 228.115C661.708 227.83 661.253 227.431 660.885 226.917C660.524 226.403 660.25 225.799 660.063 225.104C659.875 224.41 659.781 223.653 659.781 222.833ZM663.292 222.615V222.833C663.292 223.257 663.319 223.649 663.375 224.01C663.431 224.372 663.524 224.691 663.656 224.969C663.795 225.24 663.976 225.451 664.198 225.604C664.427 225.757 664.708 225.833 665.042 225.833C665.493 225.833 665.865 225.726 666.156 225.51C666.455 225.295 666.674 224.99 666.813 224.594C666.958 224.198 667.021 223.733 667 223.198V222.375C667.014 221.917 666.983 221.514 666.906 221.167C666.83 220.812 666.708 220.517 666.542 220.281C666.382 220.045 666.177 219.868 665.927 219.75C665.684 219.625 665.396 219.562 665.063 219.562C664.736 219.562 664.458 219.639 664.229 219.792C664.007 219.944 663.826 220.16 663.688 220.437C663.549 220.708 663.448 221.031 663.385 221.406C663.323 221.774 663.292 222.177 663.292 222.615ZM678.802 225.594V217.062H682.323V228.333H679.031L678.802 225.594ZM679.135 223.302L680.052 223.281C680.052 224.038 679.962 224.74 679.781 225.385C679.601 226.024 679.333 226.58 678.979 227.052C678.632 227.524 678.201 227.892 677.688 228.156C677.181 228.413 676.594 228.542 675.927 228.542C675.372 228.542 674.861 228.465 674.396 228.312C673.938 228.153 673.542 227.906 673.208 227.573C672.875 227.233 672.615 226.799 672.427 226.271C672.247 225.736 672.156 225.097 672.156 224.354V217.062H675.667V224.375C675.667 224.625 675.698 224.84 675.76 225.021C675.823 225.201 675.913 225.354 676.031 225.479C676.149 225.597 676.295 225.687 676.469 225.75C676.649 225.806 676.854 225.833 677.083 225.833C677.611 225.833 678.024 225.722 678.323 225.5C678.622 225.278 678.83 224.976 678.948 224.594C679.073 224.212 679.135 223.781 679.135 223.302ZM687.969 217.062V228.333H684.448V217.062H687.969ZM684.24 214.156C684.24 213.656 684.42 213.247 684.781 212.927C685.142 212.608 685.611 212.448 686.188 212.448C686.764 212.448 687.233 212.608 687.594 212.927C687.955 213.247 688.135 213.656 688.135 214.156C688.135 214.656 687.955 215.066 687.594 215.385C687.233 215.705 686.764 215.865 686.188 215.865C685.611 215.865 685.142 215.705 684.781 215.385C684.42 215.066 684.24 214.656 684.24 214.156ZM693.583 219.469V228.333H690.073V217.062H693.365L693.583 219.469ZM693.167 222.312L692.344 222.333C692.344 221.472 692.448 220.705 692.656 220.031C692.865 219.351 693.16 218.774 693.542 218.302C693.924 217.83 694.378 217.472 694.906 217.229C695.441 216.979 696.035 216.854 696.688 216.854C697.208 216.854 697.684 216.931 698.115 217.083C698.552 217.236 698.927 217.483 699.24 217.823C699.559 218.163 699.802 218.615 699.969 219.177C700.142 219.733 700.229 220.42 700.229 221.24V228.333H696.698V221.229C696.698 220.778 696.635 220.434 696.51 220.198C696.385 219.955 696.205 219.788 695.969 219.698C695.733 219.608 695.444 219.562 695.104 219.562C694.743 219.562 694.438 219.632 694.188 219.771C693.938 219.91 693.736 220.104 693.583 220.354C693.438 220.597 693.33 220.885 693.26 221.219C693.198 221.552 693.167 221.917 693.167 222.312ZM701.74 222.812V222.594C701.74 221.767 701.858 221.007 702.094 220.312C702.33 219.611 702.677 219.003 703.135 218.49C703.594 217.976 704.16 217.576 704.833 217.292C705.507 217 706.285 216.854 707.167 216.854C708.056 216.854 708.837 217 709.51 217.292C710.191 217.576 710.76 217.976 711.219 218.49C711.677 219.003 712.024 219.611 712.26 220.312C712.497 221.007 712.615 221.767 712.615 222.594V222.812C712.615 223.632 712.497 224.392 712.26 225.094C712.024 225.788 711.677 226.396 711.219 226.917C710.76 227.431 710.194 227.83 709.521 228.115C708.847 228.399 708.069 228.542 707.188 228.542C706.306 228.542 705.524 228.399 704.844 228.115C704.163 227.83 703.594 227.431 703.135 226.917C702.677 226.396 702.33 225.788 702.094 225.094C701.858 224.392 701.74 223.632 701.74 222.812ZM705.25 222.594V222.812C705.25 223.236 705.281 223.632 705.344 224C705.406 224.368 705.51 224.691 705.656 224.969C705.802 225.24 706 225.451 706.25 225.604C706.5 225.757 706.813 225.833 707.188 225.833C707.556 225.833 707.861 225.757 708.104 225.604C708.354 225.451 708.552 225.24 708.698 224.969C708.844 224.691 708.948 224.368 709.01 224C709.073 223.632 709.104 223.236 709.104 222.812V222.594C709.104 222.184 709.073 221.799 709.01 221.437C708.948 221.069 708.844 220.747 708.698 220.469C708.552 220.184 708.354 219.962 708.104 219.802C707.854 219.642 707.542 219.562 707.167 219.562C706.799 219.562 706.49 219.642 706.24 219.802C705.997 219.962 705.802 220.184 705.656 220.469C705.51 220.747 705.406 221.069 705.344 221.437C705.281 221.799 705.25 222.184 705.25 222.594Z" fill="white"/>
</svg>
